<?xml version="1.0" encoding="utf-8"?>
<!-- Generator: Adobe Illustrator 16.0.0, SVG Export Plug-In . SVG Version: 6.00 Build 0)  -->
<!DOCTYPE svg PUBLIC "-//W3C//DTD SVG 1.1//EN" "http://www.w3.org/Graphics/SVG/1.1/DTD/svg11.dtd">
<svg version="1.1" id="图层_1" xmlns="http://www.w3.org/2000/svg" xmlns:xlink="http://www.w3.org/1999/xlink" x="0px" y="0px"
	 width="400px" height="150px" viewBox="0 0 400 150" enable-background="new 0 0 400 150" xml:space="preserve">
<g>
	<path fill="#FFFFFF" d="M110.749,22.248L110.749,22.248L110.749,22.248L110.749,22.248L110.749,22.248
		c-2.473-1.861-5.034-3.52-7.664-4.983c-1.904-1.059-4.295-0.564-5.604,1.177L80.988,40.354l-1.176,1.563
		c-1.786,2.373-4.638,3.665-7.605,3.529c-1.082-0.049-2.164-0.039-3.242,0.029c-8.289,0.524-16.308,4.524-21.694,11.681
		c-4.33,5.753-6.229,12.576-5.879,19.245c0.063,1.201,0.757,2.298,1.851,2.796c2.27,1.032,4.017,3.137,4.454,5.83
		c0.618,3.809-1.722,7.551-5.418,8.659c-4.357,1.306-8.832-1.363-9.814-5.725c-0.532-2.361,0.079-4.711,1.463-6.479
		c0.768-0.981,1.154-2.203,1.044-3.444c-0.758-8.552,1.52-17.401,7.09-24.802c7.026-9.334,17.717-14.274,28.562-14.337
		c2.09-0.012,4.052-1.011,5.309-2.681l15.188-20.178c1.189-1.579,0.421-3.848-1.476-4.405c-25.43-7.46-53.905,0.934-70.96,23.146
		C-3.414,63.562,1.957,105.06,30.672,127.242c2.687,2.076,5.482,3.909,8.36,5.508c1.893,1.053,4.274,0.537,5.577-1.192
		l16.492-21.911l1.176-1.563c1.786-2.373,4.638-3.665,7.605-3.528c1.082,0.049,2.164,0.039,3.242-0.029
		C81.414,104,89.433,100,94.818,92.845c4.33-5.753,6.229-12.576,5.879-19.245c-0.063-1.201-0.757-2.298-1.851-2.796
		c-2.27-1.032-4.017-3.138-4.454-5.83c-0.618-3.81,1.722-7.552,5.418-8.658c4.357-1.306,8.832,1.363,9.814,5.724
		c0.532,2.362-0.079,4.711-1.463,6.48c-0.768,0.98-1.154,2.203-1.044,3.443c0.758,8.553-1.52,17.402-7.09,24.803
		c-7.026,9.334-17.717,14.273-28.562,14.337c-2.09,0.012-4.052,1.011-5.309,2.681L50.969,133.96
		c-1.18,1.568-0.439,3.843,1.444,4.396c25.633,7.534,54.368-1.045,71.384-23.652C145.724,85.569,139.882,44.176,110.749,22.248z"/>
	<g>
		<path fill="#FFFFFF" d="M219.722,40.281l-0.001-1.567c-0.001-1.133-0.92-2.052-2.053-2.052h-51.424
			c-1.134,0-2.053,0.919-2.053,2.053v3.137c0,1.134,0.919,2.053,2.053,2.053h43.629c1.255,0,2.221,1.107,2.034,2.349
			c-1.224,8.112-5.061,23.284-17.051,37.854c-0.847,1.029-2.419,1.011-3.241-0.039c-10.032-12.828-13.119-25.979-13.962-30.826
			c-0.184-1.061-1.166-1.792-2.237-1.678l-1.643,0.174l-1.449,0.151c-1.188,0.124-2.026,1.228-1.808,2.402
			c1.028,5.559,4.773,20.842,16.549,35.389c0.683,0.843,0.625,2.076-0.175,2.81c-14.336,13.149-27.229,16.031-31.841,16.657
			c-1.027,0.14-1.794,1.009-1.789,2.046l0.015,3.169c0.006,1.22,1.065,2.174,2.276,2.032c5.484-0.646,20.116-3.743,36.284-18.613
			c0.799-0.733,2.014-0.733,2.81,0.003c7.813,7.235,17.799,14.211,31.266,18.495c1.091,0.347,2.259-0.287,2.582-1.385l0.888-3.007
			c0.317-1.078-0.297-2.198-1.368-2.539c-12.252-3.908-21.285-10.2-28.378-16.651c-0.818-0.744-0.859-2.006-0.141-2.846
			C219.479,66.455,219.725,41.419,219.722,40.281z"/>
		<path fill="#FFFFFF" d="M255.419,33.379h-3.137c-1.134,0-2.053,0.919-2.053,2.053v10.999c0,1.134-0.919,2.053-2.054,2.053h-7.379
			c-1.133,0-2.053,0.919-2.053,2.053v3.138c0,1.134,0.92,2.053,2.053,2.053h7.379c1.135,0,2.054,0.919,2.054,2.053v15.934
			c0,1.134-0.919,2.053-2.054,2.053h-7.379c-1.133,0-2.053,0.919-2.053,2.053v3.137c0,1.135,0.92,2.054,2.053,2.054h7.379
			c1.135,0,2.054,0.919,2.054,2.053v15.065c0,3.27-1.308,8.605-9.647,9.31c-1.078,0.091-1.922,0.965-1.922,2.047v3.125
			c0,1.196,1.018,2.157,2.209,2.055c8.1-0.692,16.604-5.292,16.604-16.536V85.063c0-1.134,0.919-2.053,2.053-2.053h6.557
			c1.135,0,2.054-0.919,2.054-2.054v-3.137c0-1.134-0.919-2.053-2.054-2.053h-6.557c-1.134,0-2.053-0.919-2.053-2.053V57.78
			c0-1.134,0.919-2.053,2.053-2.053h6.557c1.135,0,2.054-0.919,2.054-2.053v-3.138c0-1.134-0.919-2.053-2.054-2.053h-6.557
			c-1.134,0-2.053-0.919-2.053-2.053V35.433C257.473,34.298,256.554,33.379,255.419,33.379z"/>
		<path fill="#FFFFFF" d="M271.758,114.116c0,1.134,0.919,2.054,2.053,2.054h23.138c10.239,0,18.569-7.94,18.569-17.7V49.84
			c0-1.135-0.919-2.054-2.053-2.054h-39.654c-1.134,0-2.053,0.919-2.053,2.054V114.116z M296.948,108.927h-15.895
			c-1.135,0-2.054-0.919-2.054-2.054v-21.81c0-1.134,0.919-2.053,2.054-2.053h25.167c1.134,0,2.053,0.919,2.053,2.053V98.47
			C308.274,104.235,303.193,108.927,296.948,108.927z M308.274,57.083v16.632c0,1.134-0.919,2.053-2.053,2.053h-25.167
			c-1.135,0-2.054-0.919-2.054-2.053V57.083c0-1.134,0.919-2.053,2.054-2.053h25.167C307.355,55.03,308.274,55.949,308.274,57.083z"
			/>
		<path fill="#FFFFFF" d="M303.28,33.325h-20.439c-1.135,0-2.054,0.919-2.054,2.053v3.137c0,1.134,0.919,2.053,2.054,2.053h20.439
			c1.134,0,2.053-0.919,2.053-2.053v-3.137C305.333,34.245,304.414,33.325,303.28,33.325z"/>
		<path fill="#FFFFFF" d="M381.412,36.511H338.84c-1.135,0-2.054,0.919-2.054,2.053v3.137c0,1.134,0.919,2.054,2.054,2.054h42.572
			c1.135,0,2.054-0.92,2.054-2.054v-3.137C383.466,37.431,382.547,36.511,381.412,36.511z"/>
		<path fill="#FFFFFF" d="M363.22,72.824h29.656c1.135,0,2.054-0.919,2.054-2.053v-3.137c0-1.135-0.919-2.054-2.054-2.054h-65.51
			c-1.134,0-2.053,0.919-2.053,2.054v3.137c0,1.134,0.919,2.053,2.053,2.053h20.274c1.638,0,2.617,1.824,1.711,3.189l-13.492,24.343
			c-0.363,0.545-0.632,1.08-0.821,1.633c-1.129,3.299-0.601,6.838,1.451,9.71c2.15,3.01,5.706,4.807,9.509,4.807h36.977
			c1.662,0,3.181-0.829,4.061-2.219c0.863-1.358,0.969-3.039,0.283-4.495l-8.586-16.643c-0.521-1.008-1.759-1.403-2.766-0.883
			l-2.788,1.438c-1.009,0.521-1.403,1.758-0.884,2.767l5.056,9.796c0.705,1.367-0.287,2.995-1.825,2.995h-29.528
			c-1.492,0-2.81-0.647-3.616-1.775c-0.366-0.512-0.898-1.53-0.589-2.798c0.052-0.212,0.157-0.413,0.278-0.596l16.396-28.721
			C359.525,73.781,361.309,72.824,363.22,72.824z"/>
	</g>
</g>
</svg>
